<svg width="231" height="48" viewBox="0 0 231 48" fill="none" xmlns="http://www.w3.org/2000/svg">
  <defs>
    <linearGradient id="logo-grad-1-auth" x1="0%" y1="0%" x2="100%" y2="100%">
      <stop offset="0%" stop-color="#465FFF" />
      <stop offset="100%" stop-color="#7A5AF8" />
    </linearGradient>
    <linearGradient id="logo-grad-2-auth" x1="0%" y1="0%" x2="100%" y2="100%">
      <stop offset="0%" stop-color="#36BFFA" />
      <stop offset="100%" stop-color="#465FFF" />
    </linearGradient>
    <filter id="logo-glow-auth" x="-10%" y="-10%" width="120%" height="120%">
      <feDropShadow dx="0" dy="3" stdDeviation="4" flood-color="#465FFF" flood-opacity="0.2" />
    </filter>
  </defs>

  <g filter="url(#logo-glow-auth)">
    <rect x="12" y="6" width="7" height="36" rx="3.5" fill="url(#logo-grad-1-auth)" />
    <path d="M19 10.5C19 8.01472 21.0147 6 23.5 6H32.5C38.0228 6 42.5 10.4772 42.5 16C42.5 21.5228 38.0228 26 32.5 26H19V10.5Z" fill="url(#logo-grad-2-auth)" fill-opacity="0.95" />
    <path d="M26.5 24L36.5 38.5C37.5 39.8 39.2 39.8 40.2 38.5L41.2 37C42.2 35.7 42 33.8 40.7 32.7L31 24.5H26.5Z" fill="url(#logo-grad-1-auth)" />
    <circle cx="29" cy="24" r="3.5" fill="#36BFFA" />
  </g>

  <text x="60" y="34" font-family="Outfit, sans-serif" font-size="26" font-weight="800" letter-spacing="1.5" fill="#FFFFFF">
    RIBMS
  </text>
</svg>
