<svg width="150" height="40" viewBox="0 0 150 40" fill="none" xmlns="http://www.w3.org/2000/svg">
  <defs>
    <linearGradient id="logo-grad-1" x1="0%" y1="0%" x2="100%" y2="100%">
      <stop offset="0%" stop-color="#465FFF" />
      <stop offset="100%" stop-color="#7A5AF8" />
    </linearGradient>
    <linearGradient id="logo-grad-2" x1="0%" y1="0%" x2="100%" y2="100%">
      <stop offset="0%" stop-color="#36BFFA" />
      <stop offset="100%" stop-color="#465FFF" />
    </linearGradient>
    <filter id="logo-glow" x="-10%" y="-10%" width="120%" height="120%">
      <feDropShadow dx="0" dy="3" stdDeviation="4" flood-color="#465FFF" flood-opacity="0.2" />
    </filter>
  </defs>

  <g filter="url(#logo-glow)">
    <rect x="6" y="6" width="6.5" height="28" rx="3.25" fill="url(#logo-grad-1)" />
    <path d="M12.5 9.5C12.5 7.567 14.067 6 16 6H23C27.4183 6 31 9.58172 31 14C31 18.4183 27.4183 22 23 22H12.5V9.5Z" fill="url(#logo-grad-2)" fill-opacity="0.95" />
    <path d="M18.5 20.5L26.5 31.5C27.3 32.5 28.7 32.5 29.5 31.5L30.2 30.5C31 29.5 30.8 28 29.8 27.2L22 21H18.5V20.5Z" fill="url(#logo-grad-1)" />
    <circle cx="20.5" cy="20.5" r="3" fill="#36BFFA" />
  </g>

  <text x="44" y="27" font-family="Outfit, sans-serif" font-size="21" font-weight="800" letter-spacing="1.2" fill="#101828">
    RIBMS
  </text>
</svg>
