<svg width="40" height="40" viewBox="0 0 40 40" fill="none" xmlns="http://www.w3.org/2000/svg">
  <defs>
    <linearGradient id="logo-grad-1-col" x1="0%" y1="0%" x2="100%" y2="100%">
      <stop offset="0%" stop-color="#465FFF" />
      <stop offset="100%" stop-color="#7A5AF8" />
    </linearGradient>
    <linearGradient id="logo-grad-2-col" x1="0%" y1="0%" x2="100%" y2="100%">
      <stop offset="0%" stop-color="#36BFFA" />
      <stop offset="100%" stop-color="#465FFF" />
    </linearGradient>
    <filter id="logo-glow-col" x="-10%" y="-10%" width="120%" height="120%">
      <feDropShadow dx="0" dy="3" stdDeviation="4" flood-color="#465FFF" flood-opacity="0.2" />
    </filter>
  </defs>

  <g filter="url(#logo-glow-col)">
    <rect x="8" y="6" width="6.5" height="28" rx="3.25" fill="url(#logo-grad-1-col)" />
    <path d="M14.5 9.5C14.5 7.567 16.067 6 18 6H25C29.4183 6 33 9.58172 33 14C33 18.4183 29.4183 22 25 22H14.5V9.5Z" fill="url(#logo-grad-2-col)" fill-opacity="0.95" />
    <path d="M20.5 20.5L28.5 31.5C29.3 32.5 30.7 32.5 31.5 31.5L32.2 30.5C33 29.5 32.8 28 31.8 27.2L24 21H20.5V20.5Z" fill="url(#logo-grad-1-col)" />
    <circle cx="22.5" cy="20.5" r="3" fill="#36BFFA" />
  </g>
</svg>
